<svg width="38" height="35" viewBox="0 0 38 35" fill="none" xmlns="http://www.w3.org/2000/svg">
<path d="M9 9.33329H29M9 17.5H29M9 25.6666H29M1 5.24996C1 4.16699 1.42143 3.12838 2.17157 2.36261C2.92172 1.59683 3.93913 1.16663 5 1.16663H33C34.0609 1.16663 35.0783 1.59683 35.8284 2.36261C36.5786 3.12838 37 4.16699 37 5.24996V29.75C37 30.8329 36.5786 31.8715 35.8284 32.6373C35.0783 33.4031 34.0609 33.8333 33 33.8333H5C3.93913 33.8333 2.92172 33.4031 2.17157 32.6373C1.42143 31.8715 1 30.8329 1 29.75V5.24996Z" stroke="white" stroke-width="2" stroke-linecap="round" stroke-linejoin="round"/>
</svg>
