<svg width="169" height="32" viewBox="0 0 169 32" fill="none" xmlns="http://www.w3.org/2000/svg">
<path d="M17 12.5021C15.7835 12.087 14.4868 11.9263 13.1987 12.0311C11.9106 12.136 10.6617 12.5038 9.5375 13.1094C8.41335 13.715 7.44059 14.544 6.68593 15.5396C5.93127 16.5353 5.41256 17.6739 5.16538 18.8775C4.91821 20.0811 4.9484 21.3212 5.25391 22.5127C5.55941 23.7042 6.133 24.8189 6.93532 25.7805C7.73764 26.742 8.74972 27.5275 9.90216 28.0832C11.0546 28.639 12.3201 28.9517 13.6119 29C12.8775 26.1818 12.8002 23.2456 13.3854 20.3962C13.9706 17.5468 15.2041 14.8528 17 12.5021Z" fill="white"/>
<path d="M52 12.5021C53.2165 12.087 54.5132 11.9263 55.8013 12.0311C57.0894 12.136 58.3383 12.5038 59.4625 13.1094C60.5866 13.715 61.5594 14.544 62.3141 15.5396C63.0687 16.5353 63.5874 17.6739 63.8346 18.8775C64.0818 20.0811 64.0516 21.3212 63.7461 22.5127C63.4406 23.7042 62.867 24.8189 62.0647 25.7805C61.2624 26.742 60.2503 27.5275 59.0978 28.0832C57.9454 28.639 56.6799 28.9517 55.3881 29C56.1225 26.1818 56.1998 23.2456 55.6146 20.3962C55.0294 17.5468 53.7959 14.8528 52 12.5021Z" fill="white"/>
<path d="M24.0845 29C22.7665 28.5427 21.5808 27.787 20.6265 26.7958C19.6722 25.8047 18.9771 24.6071 18.5991 23.3029C18.2211 21.9988 18.1713 20.6261 18.4538 19.2996C18.7364 17.9731 19.3431 16.7312 20.2232 15.6778C21.1033 14.6244 22.2313 13.7901 23.5129 13.2446C24.7945 12.6991 26.1924 12.4582 27.5899 12.5421C28.9874 12.626 30.3438 13.0323 31.5458 13.7269C32.7478 14.4215 33.7605 15.3844 34.4992 16.535C35.2376 15.3842 36.2501 14.4211 37.452 13.7261C38.6538 13.0312 40.0102 12.6247 41.4077 12.5404C42.8052 12.4562 44.2033 12.6968 45.485 13.2421C46.7668 13.7874 47.895 14.6215 48.7753 15.6747C49.6557 16.728 50.2626 17.9698 50.5454 19.2963C50.8282 20.6228 50.7787 21.9956 50.4009 23.2998C50.0231 24.604 49.3281 25.8018 48.3739 26.7931C47.4198 27.7844 46.2342 28.5404 44.9162 28.9978H54.5419C55.1242 26.3772 55.1517 23.6696 54.6227 21.0385C54.0938 18.4073 53.0194 15.907 51.4643 13.6884C49.9092 11.4698 47.9056 9.57895 45.5744 8.12979C43.2433 6.68063 40.6328 5.70323 37.9005 5.25655C38.0094 4.81845 38.0807 4.37241 38.1136 3.92297C38.162 3.16448 38.0366 2.40501 37.7463 1.69887C37.3563 0.766677 36.6397 -0.0909364 36.413 0.00776613C36.1862 0.106469 36.7531 1.26458 36.3382 2.83505C36.2112 3.31102 36.0116 3.76066 35.8847 3.74311C35.7577 3.72556 35.8325 3.2167 35.599 2.55868C35.3654 1.90066 34.8915 1.33258 34.7509 1.38741C34.5491 1.46857 35.2339 2.74293 34.6217 3.46675C34.4652 3.6488 34.37 3.66196 34.0911 3.82208C33.6189 4.11355 33.2489 4.53639 33.0299 5.03502C30.1026 5.24045 27.255 6.05107 24.6794 7.41213C22.1037 8.77318 19.86 10.653 18.0996 12.9246C16.3393 15.1963 15.1033 17.8068 14.4753 20.58C13.8472 23.3532 13.8416 26.2245 14.4588 29H24.0845Z" fill="white"/>
<path d="M26.5 25C28.433 25 30 23.6569 30 22C30 20.3431 28.433 19 26.5 19C24.567 19 23 20.3431 23 22C23 23.6569 24.567 25 26.5 25Z" fill="white"/>
<path d="M41.5 25C43.433 25 45 23.6569 45 22C45 20.3431 43.433 19 41.5 19C39.567 19 38 20.3431 38 22C38 23.6569 39.567 25 41.5 25Z" fill="white"/>
<path d="M71.217 12.4648H74.3934L76.9801 16.6524L79.5814 12.4648H82.7359V23.2824H79.7537V17.0688L76.9801 21.3024H76.9122L74.1556 17.1002V23.2824H71.217V12.4648Z" fill="white"/>
<path d="M84.153 19.1407V19.1092C84.153 16.7298 86.1064 14.7352 88.7999 14.7352C91.4933 14.7352 93.4103 16.6983 93.4103 19.0777V19.1092C93.4103 21.4886 91.4691 23.4832 88.7635 23.4832C86.0579 23.4832 84.153 21.5201 84.153 19.1407ZM90.5518 19.1407V19.1092C90.5616 18.8681 90.523 18.6275 90.4383 18.4015C90.3536 18.1755 90.2245 17.9686 90.0586 17.7929C89.8927 17.6173 89.6934 17.4765 89.4722 17.3787C89.2511 17.281 89.0126 17.2282 88.7708 17.2236C87.7006 17.2236 87.0188 18.0732 87.0188 19.0777V19.1092C87.009 19.3503 87.0477 19.5909 87.1324 19.817C87.217 20.043 87.3461 20.2499 87.512 20.4255C87.6779 20.6011 87.8772 20.7419 88.0984 20.8397C88.3195 20.9375 88.558 20.9902 88.7999 20.9948C89.87 20.9948 90.5518 20.1452 90.5518 19.1407Z" fill="white"/>
<path d="M94.6552 14.9216H97.5986V16.0956C98.1421 15.4009 98.9162 14.7352 100.11 14.7352C101.891 14.7352 102.959 15.9092 102.959 17.8118V23.2823H100.015V18.7534C100.015 17.8408 99.5301 17.347 98.8385 17.347C98.147 17.347 97.5986 17.8311 97.5986 18.7534V23.2823H94.6552V14.9216Z" fill="white"/>
<path d="M104.478 12H107.421V17.7174L109.697 14.9216H113.029L110.117 18.2741L113.107 23.2823H109.867L108.181 20.4381L107.421 21.3192V23.2823H104.478V12Z" fill="white"/>
<path d="M113.012 19.1407V19.1092C113.012 16.6668 114.764 14.7352 117.242 14.7352C120.139 14.7352 121.471 16.8532 121.471 19.3101C121.471 19.4941 121.471 19.7119 121.456 19.9128H115.849C116.079 20.823 116.746 21.2877 117.661 21.2877C118.358 21.2877 118.916 21.0263 119.52 20.4381L121.146 21.7815C120.34 22.803 119.178 23.4759 117.506 23.4759C114.871 23.4832 113.012 21.7355 113.012 19.1407ZM118.714 18.4145C118.605 17.485 118.064 16.8992 117.259 16.8992C116.453 16.8992 115.955 17.5019 115.803 18.4145H118.714Z" fill="white"/>
<path d="M122.121 25.0735L123.036 23.0184C123.422 23.2696 123.863 23.4233 124.322 23.4663C124.456 23.4781 124.591 23.4527 124.711 23.3929C124.831 23.3331 124.933 23.2412 125.004 23.1274L121.719 14.9216H124.803L126.475 19.9588L128.054 14.9216H131.075L128.008 23.0814C127.28 25.0178 126.489 25.7997 124.817 25.7997C123.87 25.7973 122.941 25.5469 122.121 25.0735Z" fill="white"/>
<path d="M132.206 12.4648H136.389C140.272 12.4648 142.509 14.6894 142.509 17.8119V17.8409C142.509 20.9635 140.231 23.2824 136.326 23.2824H132.201L132.206 12.4648ZM136.436 20.6246C138.234 20.6246 139.425 19.6346 139.425 17.8893V17.8579C139.425 16.1272 138.234 15.1226 136.436 15.1226H135.222V20.6246H136.436Z" fill="white"/>
<path d="M143.545 19.1407V19.1092C143.545 16.6668 145.297 14.7352 147.775 14.7352C150.672 14.7352 152.004 16.8532 152.004 19.3101C152.004 19.4941 152.004 19.7119 151.99 19.9128H146.382C146.625 20.823 147.28 21.2877 148.192 21.2877C148.891 21.2877 149.449 21.0263 150.053 20.4381L151.679 21.7815C150.874 22.803 149.711 23.4759 148.039 23.4759C145.404 23.4832 143.545 21.7355 143.545 19.1407ZM149.248 18.4145C149.139 17.485 148.595 16.8992 147.792 16.8992C146.989 16.8992 146.491 17.5019 146.336 18.4145H149.248Z" fill="white"/>
<path d="M152.237 14.9216H155.334L156.945 19.8039L158.556 14.9216H161.599L158.253 23.3428H155.584L152.237 14.9216Z" fill="white"/>
<path d="M161.599 22.2294L162.698 20.4527C163.547 21.0421 164.547 21.378 165.581 21.4209C166.091 21.4209 166.323 21.266 166.323 20.9731V20.9416C166.323 20.6173 165.86 20.4793 164.977 20.2324C163.319 19.7991 162.002 19.2424 162.002 17.5576V17.5141C162.002 15.7374 163.426 14.7474 165.363 14.7474C166.582 14.743 167.779 15.0783 168.818 15.7156L167.811 17.5697C166.942 17.0856 165.998 16.7976 165.331 16.7976C164.882 16.7976 164.652 16.967 164.652 17.1994V17.2284C164.652 17.5528 165.137 17.7126 166.013 17.9716C167.673 18.4339 168.988 19.0076 168.988 20.6342V20.6608C168.988 22.498 167.61 23.4566 165.564 23.4566C164.146 23.4728 162.759 23.0434 161.599 22.2294Z" fill="white"/>
</svg>
