<svg width="470" height="220" viewBox="0 0 470 220" fill="none" xmlns="http://www.w3.org/2000/svg">
<g clip-path="url(#clip0_18_122)">
<path d="M0.570038 155.748H15.7985L28.2 175.78L40.6713 155.748H55.795V207.495H41.4973V177.772L28.2 198.023H27.8742L14.6584 177.922V207.495H0.570038V155.748Z" fill="white"/>
<path d="M62.5891 187.683V187.533C62.5891 176.15 71.9542 166.609 84.8676 166.609C97.7809 166.609 106.972 176 106.972 187.382V187.533C106.972 198.915 97.6646 208.456 84.6931 208.456C71.7215 208.456 62.5891 199.065 62.5891 187.683ZM93.2671 187.683V187.533C93.3137 186.379 93.1286 185.228 92.7226 184.147C92.3165 183.066 91.6977 182.076 90.9024 181.236C90.1071 180.396 89.1513 179.722 88.0911 179.255C87.0308 178.787 85.8875 178.535 84.728 178.513C79.5975 178.513 76.3284 182.577 76.3284 187.382V187.533C76.2818 188.686 76.4669 189.837 76.873 190.918C77.279 191.999 77.8978 192.989 78.6931 193.829C79.4884 194.669 80.4442 195.343 81.5044 195.81C82.5647 196.278 83.7081 196.53 84.8676 196.553C89.998 196.553 93.2671 192.488 93.2671 187.683Z" fill="white"/>
<path d="M112.94 167.501H127.051V173.117C129.657 169.794 133.368 166.609 139.092 166.609C147.631 166.609 152.75 172.225 152.75 181.326V207.495H138.638V185.83C138.638 181.465 136.312 179.103 132.996 179.103C129.68 179.103 127.051 181.419 127.051 185.83V207.495H112.94V167.501Z" fill="white"/>
<path d="M160.033 153.525H174.144V180.875L185.057 167.501H201.03L187.069 183.538L201.402 207.495H185.871L177.786 193.889L174.144 198.104V207.495H160.033V153.525Z" fill="white"/>
<path d="M200.948 187.683V187.533C200.948 175.849 209.348 166.609 221.226 166.609C235.116 166.609 241.503 176.741 241.503 188.494C241.503 189.374 241.503 190.416 241.433 191.377H214.548C215.653 195.731 218.852 197.954 223.238 197.954C226.577 197.954 229.253 196.703 232.15 193.889L239.944 200.316C236.082 205.202 230.509 208.421 222.494 208.421C209.86 208.456 200.948 200.096 200.948 187.683ZM228.287 184.209C227.764 179.763 225.17 176.961 221.307 176.961C217.445 176.961 215.06 179.844 214.327 184.209H228.287Z" fill="white"/>
<path d="M244.621 216.063L249.007 206.233C250.857 207.434 252.973 208.169 255.173 208.375C255.815 208.431 256.46 208.31 257.037 208.024C257.614 207.738 258.101 207.298 258.442 206.754L242.69 167.501H257.476L265.492 191.597L273.065 167.501H287.549L272.844 206.534C269.354 215.797 265.562 219.537 257.546 219.537C253.006 219.525 248.549 218.328 244.621 216.063Z" fill="white"/>
<path d="M292.971 155.748H313.027C331.641 155.748 342.367 166.389 342.367 181.326V181.465C342.367 196.402 331.443 207.495 312.725 207.495H292.947L292.971 155.748ZM313.248 194.781C321.869 194.781 327.581 190.045 327.581 181.697V181.546C327.581 173.267 321.869 168.462 313.248 168.462H307.431V194.781H313.248Z" fill="white"/>
<path d="M347.335 187.683V187.533C347.335 175.849 355.734 166.609 367.612 166.609C381.503 166.609 387.89 176.741 387.89 188.494C387.89 189.374 387.89 190.416 387.82 191.377H360.934C362.098 195.731 365.239 197.954 369.613 197.954C372.964 197.954 375.639 196.703 378.536 193.889L386.331 200.316C382.468 205.202 376.896 208.421 368.88 208.421C356.246 208.456 347.335 200.096 347.335 187.683ZM374.674 184.209C374.15 179.763 371.544 176.961 367.694 176.961C363.843 176.961 361.458 179.844 360.713 184.209H374.674Z" fill="white"/>
<path d="M389.006 167.501H403.851L411.576 190.856L419.301 167.501H433.889L417.846 207.784H405.049L389.006 167.501Z" fill="white"/>
<path d="M433.889 202.458L439.159 193.959C443.23 196.779 448.024 198.385 452.98 198.59C455.423 198.59 456.54 197.849 456.54 196.448V196.298C456.54 194.746 454.318 194.086 450.083 192.905C442.137 190.833 435.82 188.169 435.82 180.11V179.902C435.82 171.403 442.649 166.667 451.933 166.667C457.781 166.646 463.518 168.25 468.499 171.299L463.671 180.168C459.506 177.853 454.981 176.475 451.782 176.475C449.629 176.475 448.524 177.285 448.524 178.397V178.536C448.524 180.087 450.851 180.852 455.051 182.09C463.008 184.302 469.314 187.046 469.314 194.827V194.955C469.314 203.743 462.706 208.328 452.899 208.328C446.1 208.406 439.449 206.352 433.889 202.458Z" fill="white"/>
<path d="M157.054 56.3015C151.512 54.2941 145.603 53.5171 139.734 54.0241C133.864 54.531 128.174 56.3097 123.051 59.2383C117.929 62.1669 113.497 66.1761 110.058 70.9909C106.62 75.8057 104.256 81.3121 103.13 87.1327C102.004 92.9532 102.141 98.9501 103.533 104.712C104.925 110.474 107.539 115.865 111.195 120.515C114.85 125.164 119.462 128.963 124.713 131.651C129.964 134.338 135.73 135.85 141.617 136.084C138.27 122.456 137.918 108.256 140.584 94.4769C143.251 80.6973 148.871 67.6693 157.054 56.3015Z" fill="white"/>
<path d="M325.743 56.3015C331.285 54.2941 337.194 53.5171 343.063 54.0241C348.933 54.531 354.623 56.3097 359.746 59.2383C364.868 62.1669 369.3 66.1761 372.739 70.9909C376.177 75.8057 378.541 81.3121 379.667 87.1327C380.793 92.9532 380.656 98.9501 379.264 104.712C377.872 110.474 375.258 115.865 371.602 120.515C367.947 125.164 363.335 128.963 358.084 131.651C352.833 134.338 347.067 135.85 341.18 136.084C344.527 122.456 344.879 108.256 342.213 94.4769C339.546 80.6973 333.925 67.6693 325.743 56.3015Z" fill="white"/>
<path d="M192.635 136.084C186.464 133.911 180.913 130.32 176.445 125.611C171.977 120.902 168.723 115.212 166.953 109.015C165.183 102.819 164.95 96.2968 166.273 89.9939C167.596 83.6911 170.436 77.7905 174.557 72.7855C178.677 67.7805 183.958 63.8164 189.959 61.2245C195.959 58.6326 202.504 57.4881 209.047 57.8868C215.589 58.2854 221.94 60.2156 227.568 63.5161C233.195 66.8165 237.936 71.3913 241.395 76.8581C244.852 71.3903 249.592 66.8142 255.219 63.5124C260.846 60.2105 267.196 58.2788 273.739 57.8787C280.282 57.4786 286.828 58.6217 292.829 61.2125C298.83 63.8033 304.112 67.7665 308.233 72.7709C312.355 77.7753 315.197 83.6755 316.521 89.9783C317.845 96.2812 317.613 102.804 315.844 109C314.075 115.197 310.821 120.888 306.354 125.598C301.887 130.308 296.336 133.9 290.166 136.074H335.231C337.958 123.622 338.086 110.758 335.61 98.2559C333.134 85.7542 328.103 73.8745 320.823 63.3332C313.542 52.7919 304.161 43.8076 293.247 36.9221C282.333 30.0366 270.111 25.3927 257.319 23.2703C257.829 21.1888 258.163 19.0695 258.317 16.934C258.544 13.3301 257.956 9.72165 256.597 6.36649C254.771 1.93732 251.416 -2.13752 250.355 -1.66854C249.293 -1.19957 251.947 4.30304 250.005 11.7649C249.41 14.0264 248.476 16.1628 247.881 16.0794C247.287 15.996 247.637 13.5782 246.544 10.4518C245.45 7.32529 243.231 4.62611 242.573 4.88664C241.628 5.27224 244.834 11.3272 241.968 14.7663C241.236 15.6313 240.79 15.6938 239.484 16.4546C237.273 17.8395 235.541 19.8486 234.515 22.2178C220.811 23.1938 207.479 27.0454 195.42 33.5122C183.361 39.9791 172.856 48.9108 164.615 59.7041C156.373 70.4975 150.586 82.9012 147.646 96.0777C144.705 109.254 144.679 122.897 147.569 136.084H192.635Z" fill="white"/>
<path d="M203.007 117.558C211.681 117.558 218.713 110.559 218.713 101.926C218.713 93.2931 211.681 86.2946 203.007 86.2946C194.334 86.2946 187.302 93.2931 187.302 101.926C187.302 110.559 194.334 117.558 203.007 117.558Z" fill="white"/>
<path d="M275.136 117.558C283.81 117.558 290.842 110.559 290.842 101.926C290.842 93.2931 283.81 86.2946 275.136 86.2946C266.462 86.2946 259.431 93.2931 259.431 101.926C259.431 110.559 266.462 117.558 275.136 117.558Z" fill="white"/>
</g>
<defs>
<clipPath id="clip0_18_122">
<rect width="470" height="220" fill="white"/>
</clipPath>
</defs>
</svg>
